<?xml version="1.0" encoding="utf-8"?>
<!-- Generator: Adobe Illustrator 28.0.0, SVG Export Plug-In . SVG Version: 6.00 Build 0)  -->
<svg version="1.1" id="Capa_1" xmlns="http://www.w3.org/2000/svg" xmlns:xlink="http://www.w3.org/1999/xlink" x="0px" y="0px"
	 viewBox="0 0 5136.2 1461.2" style="enable-background:new 0 0 5136.2 1461.2;" xml:space="preserve">
<style type="text/css">
	.st0{fill:#252525;}
</style>
<g>
	<g>
		<path class="st0" d="M1365.6,450.1c18.9,0,31.4-19.9,23.2-36.9C1261.3,149.3,979.8-26.2,661.2,3.2
			C309.2,35.7,28.2,322.5,2.1,675.1c-31.7,428.5,306.7,786.1,728.6,786.1c287.5,0,536.3-166.2,655.4-407.7
			c8.4-17-4.1-37.1-23.1-37.1h-0.8c-8.7,0-16.7,4.5-21.5,11.8c-97.3,149.4-266,248.3-457.6,248.3c-314.5,0-566.9-266.1-544.4-585.2
			c18.8-268.1,235.7-485.5,503.8-504.9c210.6-15.3,397.9,89,501.6,251.8C1348.7,445.5,1356.8,450.1,1365.6,450.1z"/>
		<path class="st0" d="M1073.1,507.4c72.2-7.6,138.3,19,184.3,65.6c4.5,4.6,10.6,7.3,17,7.3c17.7,0,29.5-18.9,21.1-34.4
			c-72-133.4-219.8-219.8-385.6-201.9c-179,19.4-323.3,163.3-343.1,342.2c-26,234.5,157,433.4,386.5,433.4
			c145.2,0,272-79.7,338.7-197.8c9-15.9-2.1-35.6-20.4-35.6h-2.6c-6.2,0-12,2.5-16.5,6.8c-40.2,38.6-94.7,62.2-154.9,62.2
			c-132.5,0-238.1-114.7-223.1-250.2C885.8,601.8,969.8,518.3,1073.1,507.4z"/>
	</g>
	<path class="st0" d="M1763.6,472.2c36.5-24.7,82-37,136.7-37c61.1,0,110.9,15.4,149.3,46.1c38.4,30.8,65.1,73.1,80.2,127.1
		l113.7-30.6c-22.9-76.1-63.5-136.7-122-181.8c-58.4-45-132.2-67.6-221.2-67.6c-77.2,0-143,16.9-197.3,50.7
		c-54.3,33.8-95.9,80.9-124.7,141.3c-28.8,60.4-43.2,130.5-43.2,210.2c0,79.7,14.4,149.8,43.2,210.2
		c28.8,60.4,70.3,107.5,124.7,141.3c54.3,33.8,120.1,50.7,197.3,50.7c89,0,162.7-22.5,221.2-67.6c58.4-45,99.1-105.6,122-181.8
		l-113.7-30.6c-15,53.6-41.7,95.9-80.2,126.8c-38.4,30.9-88.2,46.4-149.3,46.4c-54.7,0-100.4-12.3-137-37
		c-36.6-24.7-64.2-59.2-82.6-103.5c-18.4-44.3-27.4-96-27.1-155c0-59,9.2-110.6,27.6-155C1699.7,531.4,1727.1,496.9,1763.6,472.2z"
		/>
	<rect x="2372.2" y="328.5" class="st0" width="112.1" height="788.2"/>
	<path class="st0" d="M3096,632c-17.9-38.2-46-66.2-84.4-83.9c-38.4-17.7-83.6-26.5-135.4-26.5c-66.8,0-120.4,14.7-160.6,44
		c-40.2,29.3-67.5,68.8-81.8,118.5l104.6,32.2c10-32.5,27.7-55.8,53.1-70c25.4-14.1,53.3-21.2,83.6-21.2c48.3,0,82.3,11,102.1,33
		c17.3,19.2,26.8,47.3,28.5,84.3c-21.9,3.1-43.9,6.2-66,9.2c-35.9,5-70.2,10.4-102.7,16.1c-32.5,5.7-61.7,12.3-87.4,19.8
		c-29.7,9.7-54.7,22.3-75.1,37.8c-20.4,15.5-35.7,34.4-46.1,56.6c-10.4,22.2-15.6,47.9-15.6,77.2c0,31.5,7.4,60.3,22.3,86.6
		c14.8,26.3,36.7,47.4,65.7,63.3c29,15.9,64.9,23.9,107.8,23.9c54,0,99.5-10.8,136.5-32.4c27.7-16.2,51.7-38.7,72.1-67.7v84h99.2
		V760.2c0-24.3-1.1-47-3.2-68.1C3111,671,3105.3,651,3096,632z M2993.1,926.4c-4.3,19-13.4,37.2-27.3,54.7
		c-13.9,17.5-32.4,31.9-55.2,43.2c-22.9,11.3-50.2,16.9-82,16.9c-24,0-43.6-3.8-59-11.3c-15.4-7.5-26.8-17.6-34.3-30.3
		c-7.5-12.7-11.3-26.5-11.3-41.6c0-15.4,3.5-28.4,10.5-39.1c7-10.7,16.4-19.8,28.4-27.3c12-7.5,25.6-13.9,41-19.3
		c18.2-5.7,39-10.6,62.5-14.7c23.4-4.1,49.6-8.3,78.6-12.6c18.6-2.8,38.5-5.7,59.8-8.9c-0.2,9.5-0.6,20.3-1.1,32.5
		C3002.6,889.9,2999.1,909.2,2993.1,926.4z"/>
	<path class="st0" d="M3513.7,534.7c-19,1.3-37.5,4.8-55.5,10.7c-18.1,5.9-34.4,14.2-49.1,24.9c-15,10-28.2,22.8-39.7,38.3
		c-5.1,6.9-9.7,14.2-13.9,21.7v-92.8h-99.7v579.1h113.1V824.5c0-22.9,2.3-44.6,7-65.1c4.6-20.6,12.2-39.2,22.8-56
		c10.5-16.8,24.9-31.1,43.2-42.9c19.3-12.5,40.5-19.8,63.5-22c23.1-2.1,44.1-0.7,63,4.3V537.6
		C3550.9,534.4,3532.6,533.4,3513.7,534.7z"/>
	<path class="st0" d="M4066.5,839c0,34.3-3.8,63.5-11.5,87.4c-7.7,24-18.2,43.3-31.6,57.9c-13.4,14.7-29,25.3-46.9,31.9
		c-17.9,6.6-36.8,9.9-56.8,9.9c-30.7,0-55.7-6.3-74.8-18.8c-19.1-12.5-34-29-44.5-49.3c-10.5-20.4-17.7-42.4-21.4-66.2
		c-3.8-23.8-5.6-46.9-5.6-69.4V537.6h-113.7v321.7c0,17.9,1.6,38.6,4.8,62.2c3.2,23.6,9.3,47.7,18.2,72.4
		c8.9,24.7,21.9,47.5,38.9,68.4c17,20.9,39.1,37.8,66.2,50.7c27.2,12.9,60.8,19.3,100.8,19.3c52.2,0,96.7-11.3,133.5-33.8
		c22.5-13.8,41.8-30.9,57.9-51.3v69.5h99.7V537.6h-113.1V839z"/>
	<path class="st0" d="M5084.7,579.5c-34.3-37.5-82.8-56.3-145.3-56.3c-38.6,0-73.5,8.5-104.6,25.5c-29.8,16.2-53.5,38.9-71.3,67.7
		c-15.1-28.4-36.1-50.9-63.3-67.2c-29-17.3-64-26-105.1-26c-39.3,0-74.5,8.6-105.6,25.7c-24.1,13.3-44.2,30.3-60.6,51.1v-62.4h-99.7
		v579.1h112.6V754.8c0-39.3,10.8-71.1,32.4-95.4c21.6-24.3,50.1-36.5,85.5-36.5c35.7,0,64.3,12,85.5,35.9c21.3,24,31.9,57,31.9,99.2
		l-0.5,358.7h112.1l0.5-362l0,0c0-29.3,5.4-53.7,16.4-73.2c10.9-19.5,25.2-34.1,42.9-44c17.7-9.8,37.3-14.7,58.7-14.7
		c35,0,63.3,11.7,84.7,35.1c21.4,23.4,32.2,56,32.2,97.9l-0.5,360.9h112.1l0.5-387.7C5136.2,666.9,5119.1,617,5084.7,579.5z"/>
</g>
</svg>
